<svg width="359" height="259" viewBox="0 0 359 259" fill="none" xmlns="http://www.w3.org/2000/svg">
<rect x="100" width="259" height="259" rx="129.5" fill="url(#paint0_linear_5_13)"/>
<circle cx="131" cy="129" r="111" fill="white"/>
<g filter="url(#filter0_d_5_13)">
<circle cx="119" cy="129" r="111" fill="url(#paint1_linear_5_13)"/>
</g>
<path fill-rule="evenodd" clip-rule="evenodd" d="M156.624 89.0001C156.554 89.0035 156.484 89.0124 156.416 89.0268C149.055 89.0614 142.274 90.5842 136.119 93.1576C136.083 93.1694 136.047 93.1827 136.012 93.1976C135.959 93.2243 135.895 93.2376 135.836 93.2616C135.722 93.3105 135.615 93.3751 135.519 93.4536C135.015 93.6936 134.46 93.979 133.868 94.3016C133.833 94.3161 133.798 94.3321 133.764 94.3496C133.7 94.3816 133.641 94.4216 133.577 94.4536C133.319 94.595 133.172 94.6696 132.927 94.8083C124.246 99.3765 116.926 105.811 111.025 113.033C109.906 112.548 108.726 112.219 107.518 112.054C103.022 111.502 98.1281 113.132 93.5813 116.313C87.517 120.559 81.9035 127.602 78.106 136.493C77.9908 136.764 77.9688 137.066 78.0435 137.351C78.1182 137.637 78.2854 137.889 78.5189 138.069C78.7524 138.249 79.039 138.347 79.3339 138.347C79.6289 138.347 79.9154 138.249 80.1488 138.069C85.6503 133.802 89.9305 131.5 92.9226 130.959C94.4213 130.692 95.5627 130.828 96.5174 131.282C97.3414 131.674 98.0641 132.343 98.7255 133.34C98.5548 133.74 98.3441 134.14 98.1788 134.54C98.0789 134.784 98.0535 135.052 98.1057 135.31C98.1579 135.568 98.2854 135.805 98.4721 135.991L101.336 138.855C98.8481 142.605 96.288 146.872 93.5173 151.656C93.5146 151.656 93.5066 151.653 93.5013 151.68C93.491 151.698 93.4813 151.717 93.4719 151.736C93.4664 151.748 93.4611 151.761 93.4559 151.773C93.4523 151.782 93.4487 151.791 93.4453 151.8C93.4296 151.834 93.4154 151.869 93.4026 151.904C93.3989 151.913 93.3954 151.922 93.3919 151.93C93.3818 151.963 93.3729 151.996 93.3653 152.029C93.3542 152.072 93.3453 152.116 93.3386 152.16C93.3352 152.186 93.3325 152.211 93.3306 152.237C93.3285 152.255 93.3267 152.273 93.3253 152.291C93.3252 152.3 93.3252 152.31 93.3253 152.32C93.3248 152.364 93.3266 152.409 93.3306 152.453C93.3327 152.489 93.3363 152.524 93.3413 152.56C93.3429 152.569 93.3447 152.578 93.3466 152.587C93.3551 152.631 93.3657 152.674 93.3786 152.717C93.3901 152.757 93.4035 152.796 93.4186 152.835C93.4314 152.869 93.4457 152.903 93.4613 152.936C93.4783 152.972 93.497 153.008 93.5173 153.043C93.519 153.043 93.5208 153.043 93.5226 153.043C93.5278 153.051 93.5332 153.06 93.5386 153.069C93.5588 153.098 93.5801 153.127 93.6026 153.155C93.6069 153.163 93.6114 153.172 93.6159 153.181C93.6397 153.209 93.6646 153.236 93.6906 153.261C93.7121 153.283 93.7343 153.305 93.7573 153.325C93.766 153.336 93.7749 153.347 93.7839 153.357C93.7909 153.366 93.7981 153.375 93.8053 153.384C93.832 153.405 93.8596 153.426 93.8879 153.445C93.8949 153.454 93.9021 153.463 93.9093 153.472C93.9395 153.494 93.9707 153.514 94.0026 153.533C94.0415 153.557 94.0816 153.578 94.1226 153.597C94.1428 153.607 94.1633 153.616 94.184 153.624C94.2033 153.633 94.2229 153.642 94.2426 153.651C94.2515 153.651 94.2604 153.651 94.2693 153.651C94.3036 153.66 94.3383 153.668 94.3733 153.675C94.4041 153.685 94.4352 153.693 94.4666 153.701C94.4871 153.702 94.5075 153.702 94.528 153.701C94.5644 153.703 94.6009 153.703 94.6373 153.701C94.6444 153.701 94.6515 153.701 94.6586 153.701C94.7482 153.701 94.8375 153.692 94.9253 153.675C94.9676 153.666 95.0094 153.655 95.0507 153.643C95.0941 153.63 95.1368 153.614 95.1787 153.597C95.229 153.575 95.278 153.55 95.3253 153.523C95.3573 153.496 95.3787 153.491 95.408 153.469C100.166 150.709 104.419 148.154 108.155 145.674L110.921 148.44C111.107 148.627 111.344 148.755 111.603 148.807C111.861 148.859 112.13 148.833 112.374 148.733C112.763 148.573 113.158 148.362 113.55 148.194C115.694 149.6 116.457 151.24 115.982 154.035C115.467 157.056 113.201 161.358 108.937 166.856C108.756 167.09 108.658 167.376 108.658 167.671C108.658 167.966 108.756 168.253 108.936 168.486C109.116 168.72 109.368 168.887 109.654 168.962C109.939 169.036 110.241 169.014 110.513 168.899C119.404 165.102 126.447 159.485 130.692 153.424C134.743 147.637 136.22 141.301 133.945 135.925C141.127 130.119 147.546 122.943 152.119 114.438C152.306 114.113 152.418 113.9 152.618 113.548C153.04 112.817 153.405 112.132 153.709 111.494C153.754 111.427 153.792 111.355 153.824 111.281C153.824 111.278 153.824 111.27 153.829 111.268C153.85 111.214 153.896 111.148 153.917 111.1C153.959 111 153.988 110.895 154.005 110.788C156.665 104.298 158.023 97.3475 158 90.3335C158 90.1579 157.965 89.9841 157.898 89.822C157.83 89.6599 157.732 89.5126 157.607 89.3887C157.483 89.2649 157.335 89.1668 157.173 89.1001C157.011 89.0334 156.837 88.9994 156.661 89.0001C156.659 89.0001 156.657 89.0001 156.656 89.0001C156.645 89 156.634 89 156.624 89.0001ZM155.186 91.8189C155.039 97.3658 153.98 102.851 152.053 108.054L139.031 95.0377C144.2 93.0764 149.66 91.9887 155.186 91.8189ZM136.135 96.1524L150.957 111.006C150.839 111.233 150.698 111.489 150.567 111.734C150.566 111.736 150.564 111.738 150.562 111.74C150.516 111.803 150.476 111.87 150.442 111.94C150.213 112.388 149.957 112.82 149.719 113.262C149.463 113.708 149.17 114.204 148.994 114.553C148.968 114.605 148.946 114.658 148.927 114.713C140.388 129.508 125.79 140.085 112.126 145.877L110.385 144.133C112.619 142.565 114.705 141.013 116.43 139.455C121.441 134.946 124.281 130.148 123.649 124.679C123.639 124.581 123.619 124.484 123.588 124.391L123.561 124.329C123.46 124.036 123.259 123.787 122.993 123.625L122.889 123.564C122.726 123.464 122.543 123.4 122.353 123.377V123.351C116.881 122.719 112.078 125.561 107.566 130.57C106.006 132.3 104.448 134.386 102.878 136.626L101.035 134.783C106.822 121.143 117.374 106.774 132.156 98.2564C132.215 98.2356 132.272 98.2106 132.327 98.1818C133.313 97.6831 134.991 96.7417 136.135 96.1524ZM132.764 107.651C131.073 107.651 129.377 108.291 128.097 109.572C126.866 110.811 126.175 112.488 126.176 114.235C126.177 115.983 126.87 117.659 128.103 118.897C129.341 120.128 131.016 120.819 132.761 120.819C134.507 120.819 136.182 120.128 137.42 118.897C138.652 117.659 139.344 115.984 139.345 114.237C139.346 112.49 138.656 110.814 137.426 109.574C136.813 108.963 136.086 108.479 135.286 108.149C134.486 107.82 133.629 107.649 132.764 107.651ZM132.764 110.302C133.767 110.302 134.769 110.686 135.54 111.46C135.907 111.823 136.198 112.256 136.396 112.733C136.594 113.209 136.696 113.721 136.695 114.237C136.695 114.753 136.592 115.264 136.393 115.741C136.194 116.217 135.902 116.649 135.535 117.012C135.172 117.379 134.74 117.67 134.264 117.868C133.788 118.067 133.277 118.169 132.761 118.169C132.246 118.169 131.735 118.067 131.259 117.868C130.783 117.67 130.351 117.379 129.988 117.012C129.621 116.649 129.329 116.217 129.13 115.741C128.931 115.264 128.828 114.753 128.827 114.237C128.827 113.721 128.929 113.209 129.127 112.733C129.325 112.256 129.616 111.823 129.983 111.46C130.756 110.686 131.761 110.302 132.764 110.302ZM104.8 114.71C106.256 114.724 107.622 115.118 108.971 115.542C108.537 116.137 108.112 116.764 107.686 117.377L107.592 117.516C106.552 119.012 105.531 120.556 104.55 122.164C103.723 123.5 102.968 124.841 102.23 126.194L101.84 126.914C101.128 128.247 100.451 129.6 99.8108 130.97C99.1281 130.215 98.5521 129.29 97.6641 128.871C96.1334 128.146 94.3573 127.991 92.4506 128.335C89.8585 128.802 86.781 130.452 83.4129 132.636C86.7863 126.658 90.7625 121.537 95.1067 118.497C97.8854 116.55 100.67 115.313 103.31 114.836C103.816 114.742 104.315 114.702 104.8 114.71ZM120.753 126.252C120.718 130.116 118.86 133.655 114.646 137.45C110.859 140.855 105.163 144.477 98.6188 148.384C102.52 141.834 106.139 136.133 109.545 132.351C113.345 128.135 116.886 126.284 120.753 126.252ZM131.463 138.007C132.769 142.149 131.956 146.968 128.508 151.893C125.462 156.245 120.329 160.227 114.337 163.6C116.523 160.208 118.166 157.101 118.612 154.48C119.129 151.456 117.913 149.021 115.91 147.117C117.328 146.457 118.727 145.759 120.108 145.024L120.31 144.914C121.548 144.25 122.785 143.608 124.014 142.871C126.578 141.377 129.064 139.753 131.463 138.007ZM96.1894 144.488L85.789 154.893L87.0504 156.16L92.5652 150.642C93.7568 148.581 94.9631 146.529 96.1894 144.488ZM102.414 150.898C100.462 152.077 98.4001 153.283 96.2587 154.528L89.5758 161.211L90.8398 162.472L102.414 150.898ZM92.2372 153.499L84.5223 161.211L85.789 162.472L93.5013 154.757C93.4693 154.757 93.4346 154.731 93.4026 154.717C93.3927 154.709 93.3829 154.7 93.3733 154.691L93.2479 154.611L93.2639 154.637C93.1539 154.569 93.0495 154.493 92.9519 154.408C92.9411 154.398 92.9304 154.389 92.9199 154.379C92.8979 154.36 92.8766 154.34 92.8559 154.32C92.8506 154.32 92.8452 154.32 92.8399 154.32C92.8381 154.32 92.8364 154.32 92.8346 154.32C92.83 154.311 92.8256 154.302 92.8212 154.293C92.8026 154.267 92.7812 154.267 92.7626 154.24C92.7553 154.231 92.7482 154.222 92.7412 154.213C92.7199 154.187 92.6959 154.176 92.6746 154.149C92.6348 154.106 92.5966 154.062 92.5599 154.016C92.5562 154.007 92.5527 153.998 92.5492 153.989C92.5012 153.928 92.4666 153.864 92.4239 153.8C92.361 153.721 92.3074 153.635 92.2639 153.544C92.2559 153.517 92.2452 153.512 92.2372 153.499ZM84.5223 156.16L83.2582 157.419L84.5223 158.685L85.7836 157.419L84.5223 156.16ZM83.2582 162.472L81.9968 163.736L83.2582 164.998L84.5223 163.736L83.2582 162.472ZM88.3091 162.472L87.0504 163.736L88.3091 164.998L89.5758 163.736L88.3091 162.472Z" fill="url(#paint2_linear_5_13)"/>
<defs>
<filter id="filter0_d_5_13" x="0" y="8" width="242" height="242" filterUnits="userSpaceOnUse" color-interpolation-filters="sRGB">
<feFlood flood-opacity="0" result="BackgroundImageFix"/>
<feColorMatrix in="SourceAlpha" type="matrix" values="0 0 0 0 0 0 0 0 0 0 0 0 0 0 0 0 0 0 127 0" result="hardAlpha"/>
<feOffset dx="2"/>
<feGaussianBlur stdDeviation="5"/>
<feComposite in2="hardAlpha" operator="out"/>
<feColorMatrix type="matrix" values="0 0 0 0 0.305882 0 0 0 0 0.305882 0 0 0 0 0.305882 0 0 0 0.25 0"/>
<feBlend mode="normal" in2="BackgroundImageFix" result="effect1_dropShadow_5_13"/>
<feBlend mode="normal" in="SourceGraphic" in2="effect1_dropShadow_5_13" result="shape"/>
</filter>
<linearGradient id="paint0_linear_5_13" x1="317.188" y1="45.8767" x2="229.5" y2="259" gradientUnits="userSpaceOnUse">
<stop stop-color="#3F37C9"/>
<stop offset="1" stop-color="#4361EE"/>
</linearGradient>
<linearGradient id="paint1_linear_5_13" x1="8" y1="129" x2="230" y2="129" gradientUnits="userSpaceOnUse">
<stop stop-color="#3F37C9"/>
<stop offset="1" stop-color="#4361EE"/>
</linearGradient>
<linearGradient id="paint2_linear_5_13" x1="77.9993" y1="129.002" x2="152.666" y2="129.002" gradientUnits="userSpaceOnUse">
<stop stop-color="white"/>
<stop offset="1" stop-color="white"/>
</linearGradient>
</defs>
</svg>
